<svg width="40" height="40" viewBox="0 0 40 40" fill="none" xmlns="http://www.w3.org/2000/svg">
<rect width="40" height="40" rx="4" fill="#5B85E8"/>
<g clip-path="url(#clip0_1904_61)">
<path d="M16.2917 24.6768V28.5417C16.2917 28.8117 16.4651 29.0509 16.7217 29.1359C16.7859 29.1567 16.8517 29.1667 16.9167 29.1667C17.1117 29.1667 17.3001 29.0751 17.4201 28.9117L19.6809 25.8351L16.2917 24.6768Z" fill="white"/>
<path d="M28.7375 10.1159C28.5459 9.98007 28.2942 9.96174 28.0859 10.0709L9.33587 19.8626C9.1142 19.9784 8.98337 20.2151 9.0017 20.4642C9.02087 20.7142 9.1867 20.9276 9.42254 21.0084L14.635 22.7901L25.7359 13.2984L17.1459 23.6476L25.8817 26.6334C25.9467 26.6551 26.015 26.6667 26.0834 26.6667C26.1967 26.6667 26.3092 26.6359 26.4084 26.5759C26.5667 26.4792 26.6742 26.3167 26.7017 26.1342L28.9934 10.7176C29.0275 10.4842 28.9292 10.2526 28.7375 10.1159Z" fill="white"/>
</g>
<defs>
<clipPath id="clip0_1904_61">
<rect width="20" height="20" fill="white" transform="translate(9 10)"/>
</clipPath>
</defs>
</svg>
