<svg width="24" height="24" viewBox="0 0 24 24" fill="none" xmlns="http://www.w3.org/2000/svg">
<g clip-path="url(#clip0_1904_34)">
<path d="M5.74121 7.32422H0.5V23.4375H5.74121V7.32422Z" fill="#EF0125"/>
<path d="M20.0176 7.51318C19.9619 7.49561 19.9092 7.47656 19.8506 7.46045C19.7803 7.44434 19.71 7.43115 19.6382 7.41943C19.3599 7.36377 19.0552 7.32422 18.6978 7.32422C15.6421 7.32422 13.7041 9.54639 13.0654 10.4048V7.32422H7.82422V23.4375H13.0654V14.6484C13.0654 14.6484 17.0264 9.13184 18.6978 13.1836C18.6978 16.8003 18.6978 23.4375 18.6978 23.4375H23.9375V12.564C23.9375 10.1294 22.269 8.10059 20.0176 7.51318Z" fill="#EF0125"/>
<path d="M3.06348 5.12695C4.47925 5.12695 5.62695 3.97925 5.62695 2.56348C5.62695 1.14771 4.47925 0 3.06348 0C1.64771 0 0.5 1.14771 0.5 2.56348C0.5 3.97925 1.64771 5.12695 3.06348 5.12695Z" fill="#EF0125"/>
</g>
<defs>
<clipPath id="clip0_1904_34">
<rect width="23.4375" height="23.4375" fill="white" transform="translate(0.5)"/>
</clipPath>
</defs>
</svg>
