<svg width="20" height="20" viewBox="0 0 20 20" fill="none" xmlns="http://www.w3.org/2000/svg">
<g clip-path="url(#clip0_1904_255)">
<path d="M19.8239 3.9736L13.7583 10.0001L19.8239 16.0266C19.9335 15.7975 20.0001 15.5441 20.0001 15.2736V4.72669C20.0001 4.4561 19.9335 4.20278 19.8239 3.9736Z" fill="white"/>
<path d="M18.2423 2.96875H1.75797C1.48738 2.96875 1.23406 3.03527 1.00488 3.14492L8.75734 10.8583C9.44281 11.5438 10.5575 11.5438 11.243 10.8583L18.9954 3.14492C18.7662 3.03527 18.5129 2.96875 18.2423 2.96875Z" fill="white"/>
<path d="M0.176172 3.9736C0.0665234 4.20278 0 4.4561 0 4.72669V15.2736C0 15.5442 0.0665234 15.7975 0.176172 16.0266L6.24176 10.0001L0.176172 3.9736Z" fill="white"/>
<path d="M12.9298 10.8286L12.0715 11.687C10.9294 12.8291 9.0709 12.8291 7.92875 11.687L7.07047 10.8286L1.00488 16.8552C1.23406 16.9648 1.48738 17.0313 1.75797 17.0313H18.2423C18.5129 17.0313 18.7662 16.9648 18.9954 16.8552L12.9298 10.8286Z" fill="white"/>
</g>
<defs>
<clipPath id="clip0_1904_255">
<rect width="20" height="20" fill="white"/>
</clipPath>
</defs>
</svg>
