<svg width="36" height="36" viewBox="0 0 36 36" fill="none" xmlns="http://www.w3.org/2000/svg">
<rect opacity="0.8" width="36" height="36" rx="4" fill="black"/>
<g clip-path="url(#clip0_1904_230)">
<path d="M28.7556 26.5774L23.0682 20.89C24.1699 19.5292 24.8332 17.8 24.8332 15.9167C24.8332 11.5518 21.2815 8.00012 16.9166 8.00012C12.5516 8.00012 9 11.5517 9 15.9167C9 20.2816 12.5516 23.8333 16.9166 23.8333C18.7999 23.8333 20.5291 23.17 21.8899 22.0683L27.5773 27.7558C27.7398 27.9182 27.9531 27.9999 28.1665 27.9999C28.3798 27.9999 28.5932 27.9182 28.7557 27.7558C29.0815 27.4299 29.0815 26.9033 28.7556 26.5774ZM16.9166 22.1666C13.47 22.1666 10.6667 19.3633 10.6667 15.9167C10.6667 12.47 13.47 9.66675 16.9166 9.66675C20.3632 9.66675 23.1665 12.47 23.1665 15.9167C23.1665 19.3633 20.3632 22.1666 16.9166 22.1666Z" fill="#C4C4C4"/>
</g>
<defs>
<clipPath id="clip0_1904_230">
<rect width="20" height="20" fill="white" transform="translate(9 8)"/>
</clipPath>
</defs>
</svg>
