<svg width="25" height="24" viewBox="0 0 25 24" fill="none" xmlns="http://www.w3.org/2000/svg">
<g clip-path="url(#clip0_1904_22)">
<path d="M24.3125 5.01416C23.4409 5.39648 22.5122 5.6499 21.5439 5.77295C22.54 5.17822 23.3003 4.24365 23.6577 3.11719C22.729 3.6709 21.7036 4.06201 20.6108 4.28027C19.729 3.34131 18.4722 2.75977 17.1011 2.75977C14.4409 2.75977 12.2993 4.91895 12.2993 7.56592C12.2993 7.94678 12.3315 8.31299 12.4106 8.66162C8.41602 8.4668 4.88135 6.55225 2.50684 3.63574C2.09229 4.35498 1.84912 5.17822 1.84912 6.06445C1.84912 7.72852 2.70605 9.20361 3.9834 10.0576C3.21143 10.043 2.4541 9.81885 1.8125 9.46582C1.8125 9.48047 1.8125 9.49951 1.8125 9.51855C1.8125 11.8535 3.47803 13.793 5.66211 14.2397C5.271 14.3467 4.84473 14.3979 4.40234 14.3979C4.09473 14.3979 3.78418 14.3804 3.49268 14.3159C4.11523 16.2188 5.88184 17.6177 7.98242 17.6631C6.34766 18.9419 4.27197 19.7124 2.0249 19.7124C1.63086 19.7124 1.25293 19.6948 0.875 19.6465C3.00342 21.019 5.52588 21.8027 8.24609 21.8027C17.0879 21.8027 21.9219 14.4785 21.9219 8.12988C21.9219 7.91748 21.9146 7.7124 21.9043 7.50879C22.8579 6.83203 23.6592 5.98682 24.3125 5.01416Z" fill="#EF0125"/>
</g>
<defs>
<clipPath id="clip0_1904_22">
<rect width="23.4375" height="23.4375" fill="white" transform="translate(0.875 0.5625)"/>
</clipPath>
</defs>
</svg>
