<svg width="25" height="24" viewBox="0 0 25 24" fill="none" xmlns="http://www.w3.org/2000/svg">
<g clip-path="url(#clip0_1904_26)">
<path d="M14.1984 7.55729C16.8673 5.95479 18.3058 8.21353 16.9376 10.7667C15.5666 13.3301 14.3083 15.0015 13.6565 15.0015C13.0163 15.0015 12.5095 13.2818 11.7595 10.2965C10.9905 7.20427 10.9905 1.6292 7.77378 2.262C4.73282 2.86257 0.75 7.62321 0.75 7.62321L1.69627 8.86977C1.69627 8.86977 3.65912 7.32146 4.31242 8.09195C4.97452 8.86977 7.48081 18.2094 8.3099 19.9364C9.03351 21.4496 11.0418 23.4461 13.2361 22.0223C15.4509 20.5897 22.7617 14.3467 24.0713 6.95965C25.3779 -0.414215 15.259 1.1297 14.1984 7.55729Z" fill="#EF0125"/>
</g>
<defs>
<clipPath id="clip0_1904_26">
<rect width="23.4375" height="23.4375" fill="white" transform="translate(0.75 0.5625)"/>
</clipPath>
</defs>
</svg>
