<svg width="25" height="24" viewBox="0 0 25 24" fill="none" xmlns="http://www.w3.org/2000/svg">
<g clip-path="url(#clip0_1904_30)">
<path d="M23.0664 5.77734C22.4307 4.64648 21.7407 4.43848 20.3359 4.35938C18.9326 4.26416 15.4038 4.22461 12.3467 4.22461C9.28369 4.22461 5.75342 4.26416 4.35156 4.35791C2.94971 4.43848 2.2583 4.64502 1.6167 5.77734C0.961914 6.90674 0.625 8.85205 0.625 12.2769C0.625 12.2798 0.625 12.2812 0.625 12.2812C0.625 12.2842 0.625 12.2856 0.625 12.2856V12.2886C0.625 15.6987 0.961914 17.6587 1.6167 18.7764C2.2583 19.9072 2.94824 20.1123 4.3501 20.2075C5.75342 20.2896 9.28369 20.3379 12.3467 20.3379C15.4038 20.3379 18.9326 20.2896 20.3374 20.209C21.7422 20.1138 22.4321 19.9087 23.0679 18.7778C23.7285 17.6602 24.0625 15.7002 24.0625 12.29C24.0625 12.29 24.0625 12.2856 24.0625 12.2827C24.0625 12.2827 24.0625 12.2798 24.0625 12.2783C24.0625 8.85205 23.7285 6.90674 23.0664 5.77734ZM9.41406 16.6758V7.88672L16.7383 12.2812L9.41406 16.6758Z" fill="#EF0125"/>
</g>
<defs>
<clipPath id="clip0_1904_30">
<rect width="23.4375" height="23.4375" fill="white" transform="translate(0.625 0.5625)"/>
</clipPath>
</defs>
</svg>
