<svg width="25" height="25" viewBox="0 0 25 25" fill="none" xmlns="http://www.w3.org/2000/svg">
<path d="M18.3594 23.0469C18.6289 23.0469 18.8477 22.8281 18.8477 22.5586C18.8477 22.2891 18.6289 22.0703 18.3594 22.0703C18.0899 22.0703 17.8711 22.2891 17.8711 22.5586C17.8711 22.8281 18.0899 23.0469 18.3594 23.0469Z" fill="black"/>
<path d="M12.5 0C10.6154 0 9.08206 1.53332 9.08206 3.41797V7.12891H5.66409C5.41613 7.12891 5.20747 7.31487 5.17905 7.56111L3.22592 24.4556C3.19255 24.7454 3.41914 25 3.71096 25H21.2891C21.5807 25 21.8077 24.7456 21.7741 24.4556L19.821 7.56111C19.7926 7.31487 19.5841 7.12891 19.336 7.12891H15.918V3.41797C15.918 1.53198 14.3923 0 12.5 0ZM10.0586 3.41797C10.0586 2.07176 11.1538 0.976562 12.5 0.976562C13.8472 0.976562 14.9414 2.06623 14.9414 3.41797V7.12891H10.0586V3.41797ZM18.9009 8.10547L20.7411 24.0234H4.25894L6.09934 8.10547H9.08206V10.1425C8.51386 10.3441 8.10549 10.887 8.10549 11.5234C8.10549 12.3312 8.76277 12.9883 9.57034 12.9883C10.3781 12.9883 11.0352 12.3312 11.0352 11.5234C11.0352 10.887 10.627 10.3441 10.0586 10.1425V8.10547H14.9414V10.1425C14.3732 10.3441 13.9649 10.887 13.9649 11.5234C13.9649 12.3312 14.6221 12.9883 15.4297 12.9883C16.2375 12.9883 16.8946 12.3312 16.8946 11.5234C16.8946 10.887 16.4864 10.3441 15.918 10.1425V8.10547H18.9009ZM9.57034 11.0352C9.83965 11.0352 10.0586 11.2541 10.0586 11.5234C10.0586 11.7928 9.83965 12.0117 9.57034 12.0117C9.30121 12.0117 9.08206 11.7928 9.08206 11.5234C9.08206 11.2541 9.30121 11.0352 9.57034 11.0352ZM15.4297 11.0352C15.699 11.0352 15.918 11.2541 15.918 11.5234C15.918 11.7928 15.699 12.0117 15.4297 12.0117C15.1606 12.0117 14.9414 11.7928 14.9414 11.5234C14.9414 11.2541 15.1606 11.0352 15.4297 11.0352Z" fill="black"/>
<path d="M16.4062 22.0703H6.64062C6.37093 22.0703 6.15234 22.2889 6.15234 22.5586C6.15234 22.8283 6.37093 23.0469 6.64062 23.0469H16.4062C16.6759 23.0469 16.8945 22.8283 16.8945 22.5586C16.8945 22.2889 16.6759 22.0703 16.4062 22.0703Z" fill="black"/>
</svg>
