<svg width="20" height="20" viewBox="0 0 20 20" fill="none" xmlns="http://www.w3.org/2000/svg">
<g clip-path="url(#clip0_359_500)">
<path d="M11.1049 10.0008L19.7712 1.33448C20.0763 1.02937 20.0763 0.534678 19.7712 0.229601C19.4661 -0.0754772 18.9714 -0.0755163 18.6663 0.229601L9.99999 8.89592L1.33372 0.229601C1.0286 -0.0755163 0.533915 -0.0755163 0.228837 0.229601C-0.0762401 0.534718 -0.0762792 1.0294 0.228837 1.33448L8.89511 10.0008L0.228837 18.6671C-0.0762792 18.9722 -0.0762792 19.4669 0.228837 19.772C0.381376 19.9245 0.581337 20.0008 0.781297 20.0008C0.981258 20.0008 1.18118 19.9245 1.33376 19.772L9.99999 11.1057L18.6663 19.772C18.8188 19.9245 19.0188 20.0008 19.2187 20.0008C19.4187 20.0008 19.6186 19.9245 19.7712 19.772C20.0763 19.4669 20.0763 18.9722 19.7712 18.6671L11.1049 10.0008Z" fill="white"/>
</g>
<defs>
<clipPath id="clip0_359_500">
<rect width="20" height="20" fill="white"/>
</clipPath>
</defs>
</svg>
