<svg width="24" height="24" viewBox="0 0 24 24" fill="none" xmlns="http://www.w3.org/2000/svg">
<g clip-path="url(#clip0_1904_44)">
<path d="M16.4883 0.5625H7.69922C3.65479 0.5625 0.375 3.84229 0.375 7.88672V16.6758C0.375 20.7202 3.65479 24 7.69922 24H16.4883C20.5327 24 23.8125 20.7202 23.8125 16.6758V7.88672C23.8125 3.84229 20.5327 0.5625 16.4883 0.5625ZM21.6152 16.6758C21.6152 19.5029 19.3154 21.8027 16.4883 21.8027H7.69922C4.87207 21.8027 2.57227 19.5029 2.57227 16.6758V7.88672C2.57227 5.05957 4.87207 2.75977 7.69922 2.75977H16.4883C19.3154 2.75977 21.6152 5.05957 21.6152 7.88672V16.6758Z" fill="#EF0125"/>
<path d="M12.0938 6.42188C8.85791 6.42188 6.23438 9.04541 6.23438 12.2812C6.23438 15.5171 8.85791 18.1406 12.0938 18.1406C15.3296 18.1406 17.9531 15.5171 17.9531 12.2812C17.9531 9.04541 15.3296 6.42188 12.0938 6.42188ZM12.0938 15.9434C10.0752 15.9434 8.43164 14.2998 8.43164 12.2812C8.43164 10.2612 10.0752 8.61914 12.0938 8.61914C14.1123 8.61914 15.7559 10.2612 15.7559 12.2812C15.7559 14.2998 14.1123 15.9434 12.0938 15.9434Z" fill="#EF0125"/>
<path d="M18.3926 6.76317C18.8238 6.76317 19.1733 6.41362 19.1733 5.98242C19.1733 5.55122 18.8238 5.20166 18.3926 5.20166C17.9614 5.20166 17.6118 5.55122 17.6118 5.98242C17.6118 6.41362 17.9614 6.76317 18.3926 6.76317Z" fill="#EF0125"/>
</g>
<defs>
<clipPath id="clip0_1904_44">
<rect width="23.4375" height="23.4375" fill="white" transform="translate(0.375 0.5625)"/>
</clipPath>
</defs>
</svg>
