<svg width="25" height="23" viewBox="0 0 25 23" fill="none" xmlns="http://www.w3.org/2000/svg">
<path d="M23.176 2.62648C21.9429 1.22736 20.2323 0.456848 18.3594 0.456848C15.7252 0.456848 14.0575 2.03009 13.1223 3.34991C12.8797 3.69239 12.6733 4.0358 12.5 4.35895C12.3267 4.0358 12.1204 3.69239 11.8777 3.34991C10.9425 2.03009 9.27481 0.456848 6.64062 0.456848C4.76768 0.456848 3.05708 1.22741 1.82397 2.62653C0.647803 3.96119 0 5.74869 0 7.65973C0 9.73995 0.812158 11.6748 2.55591 13.7486C4.11436 15.6021 6.3564 17.5127 8.95264 19.725C9.92007 20.5494 10.9205 21.402 11.9856 22.3338L12.0176 22.3619C12.1557 22.4828 12.3278 22.5432 12.5 22.5432C12.6722 22.5432 12.8443 22.4827 12.9824 22.3619L13.0144 22.3338C14.0795 21.402 15.0799 20.5495 16.0475 19.7249C18.6436 17.5127 20.8856 15.6022 22.4441 13.7486C24.1878 11.6747 25 9.73995 25 7.65973C25 5.74869 24.3522 3.96119 23.176 2.62648ZM15.0973 18.6101C14.2633 19.3207 13.405 20.0521 12.5 20.8389C11.595 20.0522 10.7367 19.3208 9.90254 18.61C4.82153 14.2802 1.46484 11.4198 1.46484 7.65973C1.46484 6.10553 1.98267 4.66197 2.92295 3.59503C3.87402 2.51598 5.19429 1.92169 6.64062 1.92169C8.64888 1.92169 9.94707 3.1589 10.6824 4.19679C11.342 5.12765 11.6862 6.06603 11.8036 6.42623C11.9018 6.72775 12.1829 6.9318 12.5 6.9318C12.8171 6.9318 13.0982 6.72775 13.1964 6.42623C13.3138 6.06603 13.658 5.12765 14.3176 4.19674C15.0529 3.1589 16.3511 1.92169 18.3594 1.92169C19.8057 1.92169 21.126 2.51598 22.077 3.59503C23.0173 4.66197 23.5352 6.10553 23.5352 7.65973C23.5352 11.4198 20.1785 14.2802 15.0973 18.6101Z" fill="black"/>
</svg>
